<?xml version="1.0" encoding="utf-8"?>
<!-- Generator: Adobe Illustrator 16.0.0, SVG Export Plug-In . SVG Version: 6.00 Build 0)  -->
<!DOCTYPE svg PUBLIC "-//W3C//DTD SVG 1.1//EN" "http://www.w3.org/Graphics/SVG/1.1/DTD/svg11.dtd">
<svg version="1.1" id="Layer_1" xmlns="http://www.w3.org/2000/svg" xmlns:xlink="http://www.w3.org/1999/xlink" x="0px" y="0px"
	 width="182.534px" height="274.464px" viewBox="85.104 2.938 182.534 274.464"
	 enable-background="new 85.104 2.938 182.534 274.464" xml:space="preserve">
<linearGradient id="SVGID_1_" gradientUnits="userSpaceOnUse" x1="631.2739" y1="-329.8818" x2="631.2739" y2="-476.8918" gradientTransform="matrix(0.576 0 0 -0.576 -187.2426 4.6755)">
	<stop  offset="0" style="stop-color:#DFDFDF"/>
	<stop  offset="1" style="stop-color:#FFFFFF"/>
</linearGradient>
<path fill="url(#SVGID_1_)" d="M267.638,78.394v24.019c0,0.346-0.288,0.634-0.633,0.634h-0.75v174.355h-1.036V24.307
	c0-11.232-9.159-20.333-20.391-20.333H107.971c-11.232,0-20.391,9.101-20.391,20.333v253.037h-1.037V134.496h-0.807
	c-0.345,0-0.633-0.288-0.633-0.634v-24.019c0-0.346,0.288-0.634,0.633-0.634h0.807v-6.278h-0.807c-0.345,0-0.633-0.23-0.633-0.519
	V78.394c0-0.346,0.288-0.634,0.633-0.634h0.807V63.015h-0.691c-0.345,0-0.633-0.288-0.633-0.634v-11.29
	c0-0.346,0.288-0.634,0.633-0.634h0.691v-26.15c0-11.75,9.619-21.312,21.37-21.37h136.915c11.751,0,21.37,9.619,21.37,21.37v53.51
	c0.057,0,0.057,0,0.057,0h0.75C267.408,77.817,267.638,78.048,267.638,78.394 M192.355,28.109c1.785,0,3.168-1.44,3.168-3.168
	c0.058-1.786-1.324-3.168-3.168-3.168h-22.464c-1.786,0-3.168,1.44-3.168,3.168c0,1.786,1.44,3.168,3.168,3.168H192.355
	 M254.103,50.112v227.232h-6.106v-2.822c0-1.785-1.44-3.11-3.11-3.11h-5.357c-1.785,0-3.109,1.44-3.109,3.11v2.822h-2.996v-2.822
	c0-1.785-1.439-3.11-3.109-3.11h-5.357c-1.785,0-3.11,1.44-3.11,3.11v2.822h-2.995v-2.822c0-1.785-1.439-3.11-3.11-3.11h-5.356
	c-1.786,0-3.111,1.44-3.111,3.11v2.822h-2.994v-2.822c0-1.785-1.44-3.11-3.111-3.11h-5.356c-1.786,0-3.11,1.44-3.11,3.11v2.822
	h-2.995v-2.822c0-1.785-1.44-3.11-3.11-3.11h-5.645c-1.786,0-3.111,1.44-3.111,3.11v2.822h-2.995v-2.822
	c0-1.785-1.44-3.11-3.11-3.11h-5.357c-1.786,0-3.11,1.44-3.11,3.11v2.822h-2.995v-2.822c0-1.785-1.44-3.11-3.11-3.11h-5.357
	c-1.786,0-3.11,1.44-3.11,3.11v2.822h-2.995v-2.822c0-1.785-1.44-3.11-3.11-3.11h-5.357c-1.786,0-3.11,1.44-3.11,3.11v2.822h-2.995
	v-2.822c0-1.785-1.44-3.11-3.11-3.11h-5.357c-1.786,0-3.11,1.44-3.11,3.11v2.822h-2.995v-2.822c0-1.785-1.44-3.11-3.11-3.11h-5.357
	c-1.786,0-3.11,1.44-3.11,3.11v2.822h-6.105V50.112c0-2.88,2.361-5.184,5.184-5.184h144.807
	C251.798,44.928,254.103,47.232,254.103,50.112 M113.443,243.764c1.786,0,3.11-1.44,3.11-3.111v-9.445
	c0-1.786-1.44-3.111-3.11-3.111h-5.357c-1.786,0-3.11,1.44-3.11,3.111v9.445c0,1.786,1.325,3.111,3.11,3.111H113.443
	 M123.869,252.864c0-1.786-1.44-3.11-3.11-3.11h-5.357c-1.785,0-3.11,1.439-3.11,3.11v9.446c0,1.785,1.44,3.11,3.11,3.11h5.357
	c1.786,0,3.11-1.44,3.11-3.11V252.864 M122.717,243.764h5.357c1.786,0,3.11-1.44,3.11-3.111v-9.445c0-1.786-1.44-3.111-3.11-3.111
	h-5.357c-1.786,0-3.11,1.44-3.11,3.111v9.445C119.549,242.381,120.931,243.764,122.717,243.764 M138.441,252.864
	c0-1.786-1.44-3.11-3.11-3.11h-5.356c-1.786,0-3.111,1.439-3.111,3.11v9.446c0,1.785,1.44,3.11,3.111,3.11h5.356
	c1.786,0,3.11-1.44,3.11-3.11V252.864 M137.347,243.764h5.357c1.786,0,3.11-1.44,3.11-3.111v-9.445c0-1.786-1.44-3.111-3.11-3.111
	h-5.357c-1.786,0-3.11,1.44-3.11,3.111v9.445C134.122,242.381,135.562,243.764,137.347,243.764 M153.072,252.864
	c0-1.786-1.44-3.11-3.11-3.11h-5.356c-1.786,0-3.11,1.439-3.11,3.11v9.446c0,1.785,1.44,3.11,3.11,3.11h5.356
	c1.786,0,3.11-1.44,3.11-3.11V252.864 M151.92,243.764h5.357c1.786,0,3.11-1.44,3.11-3.111v-9.445c0-1.786-1.44-3.111-3.11-3.111
	h-5.357c-1.786,0-3.11,1.44-3.11,3.111v9.445C148.752,242.381,150.192,243.764,151.92,243.764 M167.703,252.864
	c0-1.786-1.44-3.11-3.111-3.11h-5.356c-1.786,0-3.11,1.439-3.11,3.11v9.446c0,1.785,1.44,3.11,3.11,3.11h5.356
	c1.786,0,3.111-1.44,3.111-3.11V252.864 M166.493,243.764h5.357c1.786,0,3.11-1.44,3.11-3.111v-9.445c0-1.786-1.44-3.111-3.11-3.111
	h-5.357c-1.786,0-3.11,1.44-3.11,3.111v9.445C163.382,242.381,164.822,243.764,166.493,243.764 M182.333,252.864
	c0-1.786-1.441-3.11-3.111-3.11h-5.356c-1.786,0-3.11,1.439-3.11,3.11v9.446c0,1.785,1.44,3.11,3.11,3.11h5.356
	c1.785,0,3.111-1.44,3.111-3.11V252.864 M181.123,243.764h5.357c1.785,0,3.11-1.44,3.11-3.111v-9.445c0-1.786-1.44-3.111-3.11-3.111
	h-5.357c-1.785,0-3.109,1.44-3.109,3.111v9.445C178.013,242.381,179.395,243.764,181.123,243.764 M196.963,252.864
	c0-1.786-1.44-3.11-3.11-3.11h-5.357c-1.785,0-3.109,1.439-3.109,3.11v9.446c0,1.785,1.439,3.11,3.109,3.11h5.357
	c1.785,0,3.11-1.44,3.11-3.11V252.864 M195.696,243.764h5.356c1.786,0,3.111-1.44,3.111-3.111v-9.445
	c0-1.786-1.44-3.111-3.111-3.111h-5.356c-1.786,0-3.11,1.44-3.11,3.111v9.445C192.585,242.381,194.025,243.764,195.696,243.764
	 M211.537,252.864c0-1.786-1.44-3.11-3.111-3.11h-5.356c-1.786,0-3.11,1.439-3.11,3.11v9.446c0,1.785,1.439,3.11,3.11,3.11h5.356
	c1.786,0,3.111-1.44,3.111-3.11V252.864 M210.326,243.764h5.357c1.785,0,3.11-1.44,3.11-3.111v-9.445c0-1.786-1.44-3.111-3.11-3.111
	h-5.357c-1.785,0-3.109,1.44-3.109,3.111v9.445C207.216,242.381,208.656,243.764,210.326,243.764 M226.167,252.864
	c0-1.786-1.44-3.11-3.11-3.11h-5.414c-1.786,0-3.111,1.439-3.111,3.11v9.446c0,1.785,1.44,3.11,3.111,3.11h5.356
	c1.786,0,3.11-1.44,3.11-3.11v-9.446H226.167 M224.957,243.764h5.357c1.785,0,3.109-1.44,3.109-3.111v-9.445
	c0-1.786-1.439-3.111-3.109-3.111h-5.357c-1.785,0-3.11,1.44-3.11,3.111v9.445C221.846,242.381,223.171,243.764,224.957,243.764
	 M240.74,252.864c0-1.786-1.44-3.11-3.111-3.11h-5.356c-1.786,0-3.11,1.439-3.11,3.11v9.446c0,1.785,1.439,3.11,3.11,3.11h5.356
	c1.786,0,3.111-1.44,3.111-3.11V252.864 M248.054,231.148c0-1.785-1.439-3.109-3.11-3.109h-5.356c-1.785,0-3.111,1.439-3.111,3.109
	v9.447c0,1.785,1.441,3.109,3.111,3.109h5.356c1.786,0,3.11-1.439,3.11-3.109V231.148 M253.181,82.368H99.907v135.187h153.274
	V82.368 M253.123,50.112c0-2.304-1.9-4.205-4.204-4.205H104.112c-2.304,0-4.205,1.901-4.205,4.205v30.355h153.274V50.112H253.123
	 M163.67,24.941c0-1.786-1.44-3.168-3.168-3.168c-1.786,0-3.168,1.44-3.168,3.168c0,1.786,1.44,3.168,3.168,3.168
	S163.67,26.669,163.67,24.941"/>
<path fill="#F1F1F1" d="M99.734,193.363h153.273v24.365H99.734V193.363z"/>
</svg>
